# xmcd
#
# Track frame offsets:
#	150
#	4322
#	22911
#	42803
#	44436
#	60849
#	85261
#	106730
#	126848
#	157798
#	160792
#	179395
#	203029
#	225366
#	247699
#	271657
#	294468
#
# Disc length: 4011 seconds
#
# Revision: 0
# Processed by: cddbd v1.5.1PL2 Copyright (c) Steve Scherf et al.
# Submitted via: EasyCDDAExtractor 8.1.2.3
#
DISCID=c10fa911
DTITLE=Kertra - Le labyrinthe
DYEAR=2003
DGENRE=Rap
TTITLE0=Depart
TTITLE1=Ghetto Feat. Skalreta
TTITLE2=Allez Vous Faire...(Foutre)
TTITLE3=Intro Hendricks
TTITLE4=Guettez
TTITLE5=On Vous Aime Pas
TTITLE6=On Traine Dans La Rue Feat. Le Tin and Daddy Lord C
TTITLE7=On Creuse
TTITLE8=Le Labyrinthe 2 Feat. Kadaz Dry Djef, Demon One and Koma
TTITLE9=Interlude
TTITLE10=Un Jour De Plus Feat. G-Kill
TTITLE11=Les Bleus Feat. Syndikat Vicie, Le Tin and Weedy
TTITLE12=Quand J'Serai Vieux Feat. Philippe
TTITLE13=Darre Feat. Expression Direkt
TTITLE14=Rassembler
TTITLE15=Pour Nos Familles Feat. Nadim
TTITLE16=Arrivee
EXTD=
EXTT0=
EXTT1=
EXTT2=
EXTT3=
EXTT4=
EXTT5=
EXTT6=
EXTT7=
EXTT8=
EXTT9=
EXTT10=
EXTT11=
EXTT12=
EXTT13=
EXTT14=
EXTT15=
EXTT16=
PLAYORDER=
